<?xml version="1.0" encoding="UTF-8"?>
<svg width="24px" height="24px" viewBox="0 0 24 24" version="1.1" xmlns="http://www.w3.org/2000/svg" xmlns:xlink="http://www.w3.org/1999/xlink">
    <g stroke="none" stroke-width="1" fill="none" fill-rule="evenodd">
        <g transform="translate(-14.000000, -36.000000)">
            <g transform="translate(14.000000, 35.000000)">
                <g transform="translate(0.000000, 1.000000)">
                    <g fill="currentColor">
                        <rect fill="#D8D8D8" opacity="0" x="0" y="0" width="24" height="24"></rect>
                        <path d="M20.3341666,4.32182541 C20.7637434,4.75140213 20.7637434,5.4478836 20.3341666,5.87746033 L14.1106349,12.0996429 L20.3341666,18.3225397 C20.7637434,18.7521164 20.7637434,19.4485979 20.3341666,19.8781746 C19.9045899,20.3077513 19.2081084,20.3077513 18.7785317,19.8781746 L12.5556349,13.6546429 L6.33345238,19.8781746 C5.90387566,20.3077513 5.20739418,20.3077513 4.77781746,19.8781746 C4.34824074,19.4485979 4.34824074,18.7521164 4.77781746,18.3225397 L10.9996349,12.0996429 L4.77781746,5.87746033 C4.34824074,5.4478836 4.34824074,4.75140213 4.77781746,4.32182541 C5.20739418,3.89224869 5.90387566,3.89224869 6.33345238,4.32182541 L12.5556349,10.5436429 L18.7785317,4.32182541 C19.2081084,3.89224869 19.9045899,3.89224869 20.3341666,4.32182541 Z" id="形状结合"></path>
                    </g>
                </g>
            </g>
        </g>
    </g>
</svg>
